<mxfile host="65bd71144e">
    <diagram id="NvZUrFQywpLuPvIG7Y5I" name="Page-1">
        <mxGraphModel dx="496" dy="583" grid="1" gridSize="10" guides="1" tooltips="1" connect="1" arrows="1" fold="1" page="1" pageScale="1" pageWidth="850" pageHeight="1100" math="0" shadow="0">
            <root>
                <mxCell id="0"/>
                <mxCell id="1" parent="0"/>
                <mxCell id="3" value="course" style="rounded=0;whiteSpace=wrap;html=1;" parent="1" vertex="1">
                    <mxGeometry x="200" y="300" width="120" height="60" as="geometry"/>
                </mxCell>
                <mxCell id="4" value="" style="endArrow=none;html=1;exitX=0.75;exitY=0;exitDx=0;exitDy=0;" parent="1" source="3" target="5" edge="1">
                    <mxGeometry width="50" height="50" relative="1" as="geometry">
                        <mxPoint x="280" y="240" as="sourcePoint"/>
                        <mxPoint x="280" y="300" as="targetPoint"/>
                    </mxGeometry>
                </mxCell>
                <mxCell id="5" value="&lt;u&gt;ID&lt;/u&gt;" style="ellipse;whiteSpace=wrap;html=1;" parent="1" vertex="1">
                    <mxGeometry x="230" y="190" width="80" height="60" as="geometry"/>
                </mxCell>
                <mxCell id="6" value="Name" style="ellipse;whiteSpace=wrap;html=1;" parent="1" vertex="1">
                    <mxGeometry x="130" y="190" width="80" height="60" as="geometry"/>
                </mxCell>
                <mxCell id="7" value="" style="endArrow=none;html=1;entryX=0.588;entryY=1.033;entryDx=0;entryDy=0;entryPerimeter=0;" parent="1" source="3" target="6" edge="1">
                    <mxGeometry width="50" height="50" relative="1" as="geometry">
                        <mxPoint x="300" y="310" as="sourcePoint"/>
                        <mxPoint x="287.37154140200744" y="259.48616560802975" as="targetPoint"/>
                    </mxGeometry>
                </mxCell>
                <mxCell id="8" value="" style="endArrow=none;html=1;entryX=0.988;entryY=0.7;entryDx=0;entryDy=0;entryPerimeter=0;exitX=0;exitY=0.367;exitDx=0;exitDy=0;exitPerimeter=0;" parent="1" source="3" target="9" edge="1">
                    <mxGeometry width="50" height="50" relative="1" as="geometry">
                        <mxPoint x="238.10048705460133" y="310" as="sourcePoint"/>
                        <mxPoint x="187.03999999999996" y="261.98" as="targetPoint"/>
                    </mxGeometry>
                </mxCell>
                <mxCell id="9" value="Code" style="ellipse;whiteSpace=wrap;html=1;" parent="1" vertex="1">
                    <mxGeometry x="50" y="280" width="80" height="60" as="geometry"/>
                </mxCell>
                <mxCell id="10" value="syllabus" style="ellipse;whiteSpace=wrap;html=1;" parent="1" vertex="1">
                    <mxGeometry x="50" y="390" width="80" height="60" as="geometry"/>
                </mxCell>
                <mxCell id="11" value="" style="endArrow=none;html=1;entryX=1;entryY=0.367;entryDx=0;entryDy=0;entryPerimeter=0;exitX=0.067;exitY=1;exitDx=0;exitDy=0;exitPerimeter=0;" parent="1" source="3" target="10" edge="1">
                    <mxGeometry width="50" height="50" relative="1" as="geometry">
                        <mxPoint x="210" y="332.02" as="sourcePoint"/>
                        <mxPoint x="139.03999999999996" y="332" as="targetPoint"/>
                    </mxGeometry>
                </mxCell>
                <mxCell id="12" value="Progression" style="ellipse;whiteSpace=wrap;html=1;" parent="1" vertex="1">
                    <mxGeometry x="200" y="430" width="80" height="60" as="geometry"/>
                </mxCell>
                <mxCell id="14" value="" style="endArrow=none;html=1;entryX=0.588;entryY=0.033;entryDx=0;entryDy=0;entryPerimeter=0;exitX=0.383;exitY=1;exitDx=0;exitDy=0;exitPerimeter=0;" parent="1" source="3" target="12" edge="1">
                    <mxGeometry width="50" height="50" relative="1" as="geometry">
                        <mxPoint x="218.03999999999996" y="370" as="sourcePoint"/>
                        <mxPoint x="140" y="422.02" as="targetPoint"/>
                    </mxGeometry>
                </mxCell>
                <mxCell id="16" value="Timestamp" style="ellipse;whiteSpace=wrap;html=1;" parent="1" vertex="1">
                    <mxGeometry x="340" y="200" width="80" height="60" as="geometry"/>
                </mxCell>
                <mxCell id="17" value="" style="endArrow=none;html=1;exitX=1;exitY=0.133;exitDx=0;exitDy=0;entryX=0.338;entryY=1.017;entryDx=0;entryDy=0;entryPerimeter=0;exitPerimeter=0;" parent="1" source="3" target="16" edge="1">
                    <mxGeometry width="50" height="50" relative="1" as="geometry">
                        <mxPoint x="300" y="310" as="sourcePoint"/>
                        <mxPoint x="287.37154140200744" y="259.48616560802975" as="targetPoint"/>
                    </mxGeometry>
                </mxCell>
            </root>
        </mxGraphModel>
    </diagram>
</mxfile>